<?xml version="1.0" encoding="utf-8"?>
<!-- Svg Vector Icons : http://www.onlinewebfonts.com/icon -->
<!DOCTYPE svg PUBLIC "-//W3C//DTD SVG 1.1//EN" "http://www.w3.org/Graphics/SVG/1.1/DTD/svg11.dtd">
<svg fill="#656565" version="1.1" xmlns="http://www.w3.org/2000/svg" xmlns:xlink="http://www.w3.org/1999/xlink" x="0px" y="0px" viewBox="0 0 1000 1000" enable-background="new 0 0 1000 1000" xml:space="preserve">
<metadata> Svg Vector Icons : http://www.onlinewebfonts.com/icon </metadata>
<g><path d="M624.1,557.3c-16.8-15.2-40.4-22.7-70.8-22.7H376.4V713h176.9c30.4,0,54.1-7.8,70.8-23.7c16.8-15.7,25.3-38.1,25.3-66.9C649.2,594.2,640.9,572.4,624.1,557.3z"/><path d="M599.6,442c16-13.6,24-33.3,24-58.9c0-28.8-7.2-49.2-21.6-60.9c-14.4-11.7-35.2-17.6-62.5-17.6H376.2v157.7h163.3C563.6,462.4,583.6,455.5,599.6,442z"/><path d="M826.7,10H173.3C83.5,10,10,83.5,10,173.3v653.3C10,916.5,83.5,990,173.3,990h653.3c89.8,0,163.3-73.5,163.3-163.3V173.3C990,83.5,916.5,10,826.7,10z M737.3,698.2c-8,19.5-20.5,36.3-37.6,50.4c-17.1,14.1-38.9,25.3-65.7,33.6s-58.4,12.5-95.3,12.5H276.1V223H554c51.2,0,92.4,11.7,123.3,35.2c30.9,23.5,46.4,58.9,46.4,106.5c0,28.8-7,53.5-21.1,74c-14.1,20.5-34.3,36.5-60.5,47.7v1.6c35.2,7.5,62,24.2,80.1,50c18.1,25.9,27.2,58.3,27.2,97.4C749.3,657.7,745.3,678.7,737.3,698.2z"/></g>
</svg>